<svg width="64" height="64" viewBox="0 0 64 64" fill="none" xmlns="http://www.w3.org/2000/svg">
<circle cx="32" cy="32" r="32" fill="#6344C6"/>
<path d="M21.4873 39.7212C21.3007 39.5927 21.1271 39.4481 20.9645 39.2855C19.5 37.8211 19.5 35.464 19.5 30.75C19.5 26.036 19.5 23.6789 20.9645 22.2145C22.4289 20.75 24.786 20.75 29.5 20.75H34.5C39.214 20.75 41.5711 20.75 43.0355 22.2145C44.5 23.6789 44.5 26.036 44.5 30.75C44.5 35.464 44.5 37.8211 43.0355 39.2855C42.8729 39.4481 42.6993 39.5927 42.5127 39.7212" stroke="white" stroke-width="1.5" stroke-linecap="round"/>
<path d="M27.8579 38.1575C26.7771 38.8156 23.9435 40.1595 25.6694 41.8411C26.5125 42.6625 27.4514 43.25 28.6319 43.25H35.3681C36.5486 43.25 37.4875 42.6625 38.3306 41.8411C40.0565 40.1595 37.2229 38.8156 36.1421 38.1575C33.6078 36.6142 30.3922 36.6142 27.8579 38.1575Z" stroke="white" stroke-width="1.5" stroke-linecap="round" stroke-linejoin="round"/>
<path d="M35.125 30.75C35.125 32.4759 33.7259 33.875 32 33.875C30.2741 33.875 28.875 32.4759 28.875 30.75C28.875 29.0241 30.2741 27.625 32 27.625C33.7259 27.625 35.125 29.0241 35.125 30.75Z" stroke="white" stroke-width="1.5"/>
</svg>
